<svg viewBox="384.8332 116.9133 32.9167 32.9167" xmlns="http://www.w3.org/2000/svg">
    <defs>
        <linearGradient id="paint0_linear_4_72" x1="26.3042" y1="7.27917" x2="53.4604" y2="32.5427" gradientUnits="userSpaceOnUse">
            <stop stop-color="#FF5722" offset="0"/>
            <stop offset="0.4967" stop-color="#FF9E80"/>
            <stop offset="1" stop-color="#FF774C"/>
        </linearGradient>
    </defs>
    <mask id="mask0_4_72" style="mask-type:luminance" maskUnits="userSpaceOnUse" x="24" y="3" width="33" height="33">
        <path d="M56.9167 3H24V35.9167H56.9167V3Z" fill="white"/>
    </mask>
    <g mask="url(#mask0_4_72)" transform="matrix(1, 0, 0, 1, 360.83322681238093, 113.91330888738197)">
        <path fill-rule="evenodd" clip-rule="evenodd" d="M43.75 5.35119C43.75 4.05266 42.6973 3 41.3988 3H39.5179C38.2193 3 37.1667 4.05267 37.1667 5.35119V5.83526C37.1667 7.92995 34.6341 8.97897 33.1529 7.4978L32.8106 7.15552C31.8924 6.23732 30.4038 6.23732 29.4855 7.15552L28.1555 8.48555C27.2373 9.40374 27.2373 10.8924 28.1555 11.8106L28.4978 12.1529C29.979 13.6341 28.93 16.1667 26.8353 16.1667H26.3512C25.0527 16.1667 24 17.2193 24 18.5179V20.3988C24 21.6973 25.0527 22.75 26.3512 22.75H26.8353C28.93 22.75 29.979 25.2826 28.4978 26.7637L28.1555 27.106C27.2373 28.0242 27.2373 29.5129 28.1555 30.4311L29.4855 31.7611C30.4038 32.6793 31.8924 32.6793 32.8106 31.7611L33.1529 31.4188C34.6341 29.9377 37.1667 30.9867 37.1667 33.0814V33.5654C37.1667 34.864 38.2193 35.9167 39.5179 35.9167H41.3988C42.6973 35.9167 43.75 34.864 43.75 33.5654V33.0814C43.75 30.9867 46.2826 29.9377 47.7637 31.4188L48.106 31.7611C49.0242 32.6793 50.5129 32.6793 51.4311 31.7611L52.7611 30.4311C53.6793 29.5129 53.6793 28.0242 52.7611 27.106L52.4189 26.7637C50.9377 25.2826 51.9867 22.75 54.0814 22.75H54.5654C55.864 22.75 56.9167 21.6973 56.9167 20.3988V18.5179C56.9167 17.2193 55.864 16.1667 54.5654 16.1667H54.0814C51.9867 16.1667 50.9377 13.6341 52.4188 12.1529L52.7611 11.8106C53.6793 10.8924 53.6793 9.40374 52.7611 8.48555L51.4311 7.15552C50.5129 6.2373 49.0242 6.2373 48.106 7.15552L47.7637 7.4978C46.2826 8.97897 43.75 7.92995 43.75 5.83526V5.35119Z" fill="url(#paint0_linear_4_72)"/>
    </g>
    <path fill-rule="evenodd" clip-rule="evenodd" d="M40.7929 22.8147C40.9887 23.1253 41.2272 23.3919 41.5086 23.6144C41.8111 23.8509 42.1508 24.0311 42.5276 24.1548C42.9017 24.2786 43.3019 24.3405 43.7282 24.3405C44.4488 24.3405 45.0896 24.1645 45.6507 23.8124C46.2118 23.4604 46.6532 22.9598 46.975 22.3107C47.2968 21.6616 47.4577 20.8915 47.4577 20.0004C47.4577 19.1093 47.2968 18.3391 46.975 17.6901C46.6532 17.041 46.2118 16.5404 45.6507 16.1883C45.0896 15.8363 44.4488 15.6603 43.7282 15.6603C43.3019 15.6603 42.9017 15.7221 42.5276 15.8459C42.1508 15.9697 41.8111 16.1512 41.5086 16.3905C41.2272 16.6105 40.9887 16.8757 40.7929 17.186C40.5972 16.8757 40.3587 16.6105 40.0773 16.3905C39.7748 16.1512 39.4351 15.9697 39.0583 15.8459C38.6842 15.7221 38.284 15.6603 37.8577 15.6603C37.1371 15.6603 36.4963 15.8363 35.9352 16.1883C35.3741 16.5404 34.9327 17.041 34.6109 17.6901C34.2891 18.3391 34.1282 19.1093 34.1282 20.0004C34.1282 20.8915 34.2891 21.6616 34.6109 22.3107C34.9327 22.9598 35.3741 23.4604 35.9352 23.8124C36.4963 24.1645 37.1371 24.3405 37.8577 24.3405C38.284 24.3405 38.6842 24.2786 39.0583 24.1548C39.4351 24.0311 39.7748 23.8509 40.0773 23.6144C40.3587 23.3919 40.5972 23.1253 40.7929 22.8147ZM41.3518 18.4162L40.2341 18.4162C40.1736 18.1219 40.0677 17.8633 39.9164 17.6405C39.7679 17.4178 39.5864 17.2307 39.3718 17.0795C39.16 16.9254 38.9249 16.8099 38.6663 16.7329C38.4078 16.6559 38.1383 16.6174 37.8577 16.6174C37.3462 16.6174 36.8827 16.7467 36.4674 17.0052C36.0549 17.2637 35.7262 17.6447 35.4814 18.148C35.2394 18.6513 35.1183 19.2688 35.1183 20.0004C35.1183 20.732 35.2394 21.3494 35.4814 21.8528C35.7262 22.3561 36.0549 22.737 36.4674 22.9956C36.8827 23.2541 37.3462 23.3834 37.8577 23.3834C38.1383 23.3834 38.4078 23.3449 38.6663 23.2678C38.9249 23.1908 39.16 23.0767 39.3718 22.9254C39.5864 22.7714 39.7679 22.583 39.9164 22.3602C40.0677 22.1347 40.1736 21.8761 40.2341 21.5846L41.3518 21.5846C41.4123 21.8761 41.5182 22.1347 41.6695 22.3602C41.818 22.583 41.9995 22.7714 42.2141 22.9254C42.4259 23.0767 42.661 23.1908 42.9195 23.2678C43.1781 23.3449 43.4476 23.3834 43.7282 23.3834C44.2397 23.3834 44.7032 23.2541 45.1185 22.9956C45.531 22.737 45.8597 22.3561 46.1045 21.8528C46.3465 21.3494 46.4676 20.732 46.4676 20.0004C46.4676 19.2688 46.3465 18.6513 46.1045 18.148C45.8597 17.6447 45.531 17.2637 45.1185 17.0052C44.7032 16.7467 44.2397 16.6174 43.7282 16.6174C43.4476 16.6174 43.1781 16.6559 42.9195 16.7329C42.661 16.8099 42.4259 16.9254 42.2141 17.0795C41.9995 17.2307 41.818 17.4178 41.6695 17.6405C41.5182 17.8633 41.4123 18.1219 41.3518 18.4162Z" fill="white" transform="matrix(1, 0, 0, 1, 360.83322681238093, 113.91330888738197)"/>
</svg>